<?xml version="1.0" encoding="UTF-8" standalone="no"?>
<svg
   width="24"
   height="24"
   viewBox="0 0 24 24"
   version="1.1"
   id="svg79"
   sodipodi:docname="bx-error-circle.svg"
   inkscape:version="1.1.2 (0a00cf5339, 2022-02-04)"
   xmlns:inkscape="http://www.inkscape.org/namespaces/inkscape"
   xmlns:sodipodi="http://sodipodi.sourceforge.net/DTD/sodipodi-0.dtd"
   xmlns="http://www.w3.org/2000/svg"
   xmlns:svg="http://www.w3.org/2000/svg">
  <defs
     id="defs83" />
  <sodipodi:namedview
     id="namedview81"
     pagecolor="#ffffff"
     bordercolor="#666666"
     borderopacity="1.0"
     inkscape:pageshadow="2"
     inkscape:pageopacity="0.0"
     inkscape:pagecheckerboard="0"
     showgrid="false"
     inkscape:zoom="22.166667"
     inkscape:cx="12"
     inkscape:cy="11.909774"
     inkscape:window-width="1366"
     inkscape:window-height="714"
     inkscape:window-x="0"
     inkscape:window-y="22"
     inkscape:window-maximized="1"
     inkscape:current-layer="svg79" />
  <path
     d="M11.953 2C6.465 2 2 6.486 2 12s4.486 10 10 10 10-4.486 10-10S17.493 2 11.953 2zM12 20c-4.411 0-8-3.589-8-8s3.567-8 7.953-8C16.391 4 20 7.589 20 12s-3.589 8-8 8z"
     id="path75" />
  <path
     d="M11 7h2v7h-2zm0 8h2v2h-2z"
     id="path77" />
  <path
     style="fill:#ff2a2a;stroke-width:0.0451128"
     d="M 11.007519,10.488722 V 7.0150376 H 12 12.992481 v 3.4736844 3.473684 H 12 11.007519 Z"
     id="path325" />
  <path
     style="fill:#ff2a2a;stroke-width:0.0451128"
     d="M 11.007519,15.992481 V 15 H 12 12.992481 v 0.992481 0.992481 H 12 11.007519 Z"
     id="path364" />
  <path
     style="fill:#ff2a2a;stroke-width:0.0451128"
     d="M 11.007519,15.992481 V 15 H 12 12.992481 v 0.992481 0.992481 H 12 11.007519 Z"
     id="path403" />
  <path
     style="fill:#ff2a2a;stroke-width:0.0451128"
     d="M 11.007519,10.488722 V 7.0150376 H 12 12.992481 v 3.4736844 3.473684 H 12 11.007519 Z"
     id="path442" />
  <path
     style="fill:#ff2a2a;stroke-width:0.0451128"
     d="M 11.007519,10.488722 V 7.0150376 H 12 12.992481 v 3.4736844 3.473684 H 12 11.007519 Z"
     id="path481" />
  <path
     style="fill:#ff2a2a;stroke-width:0.0451128"
     d="M 11.481203,21.964783 C 10.061898,21.862559 8.8402489,21.541579 7.6393281,20.955356 6.5604388,20.428703 5.6939201,19.794291 4.8267895,18.896189 1.9048935,15.869929 1.198517,11.398152 3.0462074,7.6240602 4.1697067,5.3292013 6.1218354,3.5525929 8.5208039,2.6416971 9.0429582,2.4434335 9.9824937,2.2087202 10.626315,2.1157017 c 0.712559,-0.1029495 2.021455,-0.1020536 2.704512,0.00185 2.928199,0.4454301 5.424348,2.0327321 7.027697,4.4689131 0.385675,0.5860082 0.893386,1.6383415 1.109572,2.2998121 1.155118,3.5343561 0.282532,7.3404341 -2.294885,10.0099111 -0.867131,0.898102 -1.73365,1.532514 -2.812539,2.059167 -1.297236,0.633239 -2.600983,0.957295 -4.044883,1.005388 -0.334962,0.01116 -0.710526,0.01297 -0.834586,0.004 z m 1.9179,-2.062735 c 3.339309,-0.623583 5.900562,-3.189809 6.503122,-6.515746 0.135679,-0.748902 0.135863,-2.02274 4.06e-4,-2.770258 C 19.528331,8.5505747 18.355662,6.699305 16.642669,5.4696156 15.79597,4.8618042 14.575771,4.3390327 13.5058,4.1256827 12.807826,3.9865083 11.576303,3.9545171 10.87218,4.0572694 7.3463125,4.5717984 4.6804844,7.1918368 4.0758708,10.736842 c -0.1143006,0.670174 -0.1035545,1.953334 0.022189,2.64946 0.6170896,3.416269 3.3090684,6.030703 6.7487792,6.554373 0.541762,0.08248 2.023854,0.06005 2.552265,-0.03863 z"
     id="path520" />
  <path
     style="fill:#ff2a2a;stroke-width:0.0451128"
     d="M 10.984962,21.897319 C 9.7225164,21.742865 8.6008471,21.403132 7.4887218,20.838375 6.472034,20.322082 5.66318,19.718859 4.84767,18.868745 3.0288251,16.972722 2.0663023,14.597203 2.0645632,12 2.0620473,8.2425997 4.176104,4.8210629 7.562682,3.1014619 8.2603268,2.7472191 8.805766,2.547576 9.6090226,2.3524546 10.605121,2.1104894 10.881069,2.0790843 12,2.0803413 c 1.099808,0.00124 1.461264,0.044715 2.424399,0.2916287 2.769438,0.7099871 5.115135,2.5790136 6.393173,5.0940136 0.790246,1.5550953 1.106483,2.8464514 1.106996,4.5204274 2.7e-4,0.942921 -0.07785,1.605569 -0.287164,2.435137 -0.458426,1.816903 -1.427284,3.458344 -2.826642,4.788901 -1.620223,1.540565 -3.736653,2.500222 -5.931063,2.689335 -0.627008,0.05403 -1.441594,0.05298 -1.894737,-0.0025 z m 2.731498,-2.040078 c 0.719812,-0.168752 1.127208,-0.318252 1.870006,-0.686226 1.628555,-0.806769 2.840009,-2.024745 3.632663,-3.652218 0.658413,-1.351851 0.914858,-2.792299 0.771869,-4.335575 C 19.765566,8.7501483 18.289251,6.4128762 16.176276,5.1438339 15.259966,4.5935028 13.994393,4.1466384 13.036817,4.0353142 12.761225,4.0032749 12.225898,3.9902947 11.691768,4.0027006 10.932391,4.020338 10.726998,4.041169 10.266705,4.1472305 7.5658777,4.76956 5.5252515,6.5166632 4.5068414,9.0785968 4.3052879,9.5856293 4.0742895,10.529112 4.0120351,11.099569 c -0.071864,0.658515 -0.026728,1.801943 0.096297,2.439441 0.5864812,3.039077 2.9377496,5.512654 5.9518179,6.261423 0.746898,0.185548 0.947114,0.20323 2.097745,0.185269 0.956363,-0.01493 1.138235,-0.02992 1.558565,-0.128461 z"
     id="path559" />
</svg>
